<?xml version="1.0" standalone="no"?><!DOCTYPE svg PUBLIC "-//W3C//DTD SVG 1.1//EN" "http://www.w3.org/Graphics/SVG/1.1/DTD/svg11.dtd"><svg t="1775209878491" class="icon" viewBox="0 0 1024 1024" version="1.1" xmlns="http://www.w3.org/2000/svg" p-id="3882" xmlns:xlink="http://www.w3.org/1999/xlink" width="128" height="128"><path d="M178 128h515c27.614 0 50 22.386 50 50v141H128V178C128 150.386 150.386 128 178 128z" fill="#D5D4F5" p-id="3883"></path><path d="M128 319h615v192H128z" fill="#B9B8EE" p-id="3884"></path><path d="M128 511h615v192H128z" fill="#9D9CE8" p-id="3885"></path><path d="M128 703h615v143c0 27.614-22.386 50-50 50H178c-27.614 0-50-22.386-50-50V703z" fill="#8180E1" p-id="3886"></path><path d="M281 204m50 0l515 0q50 0 50 50l0 515q0 50-50 50l-515 0q-50 0-50-50l0-515q0-50 50-50Z" fill="#6564DB" p-id="3887"></path><path d="M701.804 528.7a30.634 30.634 0 0 1-9.52 9.633L517.191 650.02c-14.226 9.075-33.03 4.762-42-9.632a31.079 31.079 0 0 1-4.691-16.432V400.582c0-17.017 13.634-30.811 30.452-30.811a30.19 30.19 0 0 1 16.24 4.747l175.092 111.687c14.227 9.075 18.49 28.1 9.52 42.495z m-172.938-73.26v109.42l87.97-54.71-87.97-54.71z" fill="#FFFFFF" p-id="3888"></path><path d="M655 511.271l-142 71v-142z" fill="#FFFFFF" p-id="3889"></path></svg>